<svg width="20" height="17" viewBox="0 0 20 17" fill="none" xmlns="http://www.w3.org/2000/svg">
<path d="M19 0H0V2H2.3L5.582 11.025C5.79362 11.6029 6.1773 12.1021 6.68134 12.4552C7.18539 12.8083 7.78556 12.9985 8.401 13H17V11H8.401C7.982 11 7.604 10.735 7.461 10.342L6.973 9H16.246C17.136 9 17.926 8.402 18.169 7.549L19.962 1.275C20.0039 1.12615 20.0109 0.969616 19.9823 0.817634C19.9537 0.665651 19.8904 0.522335 19.7973 0.398886C19.7041 0.275436 19.5837 0.175197 19.4454 0.106001C19.3071 0.0368048 19.1546 0.000526196 19 0V0ZM16.246 7H6.246L4.428 2H17.675L16.246 7V7Z" fill="black"/>
<path d="M8.5 17C9.32843 17 10 16.3284 10 15.5C10 14.6716 9.32843 14 8.5 14C7.67157 14 7 14.6716 7 15.5C7 16.3284 7.67157 17 8.5 17Z" fill="black"/>
<path d="M14.5 17C15.3284 17 16 16.3284 16 15.5C16 14.6716 15.3284 14 14.5 14C13.6716 14 13 14.6716 13 15.5C13 16.3284 13.6716 17 14.5 17Z" fill="black"/>
</svg>
