<svg width="17" height="18" viewBox="0 0 17 18" fill="none" xmlns="http://www.w3.org/2000/svg">
<path d="M14.7618 3.4574C14.4 3.07416 13.9705 2.77014 13.4977 2.56272C13.0249 2.3553 12.5182 2.24854 12.0064 2.24854C11.4947 2.24854 10.9879 2.3553 10.5151 2.56272C10.0423 2.77014 9.61278 3.07416 9.251 3.4574L8.50017 4.2524L7.74933 3.4574C7.01855 2.68364 6.0274 2.24894 4.99392 2.24894C3.96043 2.24894 2.96928 2.68364 2.2385 3.4574C1.50772 4.23117 1.09717 5.28063 1.09717 6.3749C1.09717 7.46918 1.50772 8.51864 2.2385 9.2924L2.98933 10.0874L8.50017 15.9224L14.011 10.0874L14.7618 9.2924C15.1238 8.90934 15.4109 8.45451 15.6068 7.95392C15.8027 7.45333 15.9035 6.91677 15.9035 6.3749C15.9035 5.83304 15.8027 5.29648 15.6068 4.79589C15.4109 4.29529 15.1238 3.84047 14.7618 3.4574V3.4574Z" stroke="black" stroke-width="1.5" stroke-linecap="round" stroke-linejoin="round"/>
</svg>
