<svg width="127" height="87" viewBox="0 0 127 87" fill="none" xmlns="http://www.w3.org/2000/svg">
<path d="M0 29.5312H125.998V57.0933H0V29.5312Z" fill="#E6E7E8"/>
<path d="M106.315 0H19.6911C6.64439 0 0.00390625 9.69593 0.00390625 21.6559V29.5308H126.002V21.6559C126.002 9.69593 119.361 0 106.315 0Z" fill="#FF9933"/>
<path d="M0 64.9676C0 76.9276 6.64048 86.6235 19.6872 86.6235H106.311C119.357 86.6235 125.998 76.9276 125.998 64.9676V57.0928H0V64.9676Z" fill="#128807"/>
<path fill-rule="evenodd" clip-rule="evenodd" d="M63.6066 30.6777C66.122 30.6777 68.5809 31.4239 70.6721 32.8218C72.7633 34.2197 74.3929 36.2065 75.3546 38.5308C76.3163 40.8552 76.567 43.4125 76.0748 45.8793C75.5826 48.3461 74.3698 50.6115 72.5897 52.3888C70.8097 54.1661 68.5424 55.3754 66.0748 55.8638C63.6073 56.3521 61.0503 56.0975 58.7275 55.1322C56.4047 54.1669 54.4204 52.5343 53.0257 50.4409C51.631 48.3475 50.8887 45.8874 50.8926 43.372C50.8983 40.0036 52.2403 36.7751 54.624 34.3952C57.0076 32.0152 60.2382 30.6783 63.6066 30.6777V30.6777ZM55.1312 36.1803C55.3498 36.4284 55.3891 36.6941 55.2435 36.9166C55.1817 37.019 55.0864 37.097 54.9737 37.1371C54.8872 37.1693 54.7942 37.18 54.7027 37.1683C54.6111 37.1566 54.5238 37.123 54.4481 37.0702C54.1059 37.5602 53.805 38.0778 53.5484 38.6176C53.8457 38.8125 53.9441 39.0566 53.8457 39.3263C53.793 39.4636 53.6889 39.5749 53.5555 39.6367C53.422 39.6984 53.2698 39.7057 53.131 39.657C52.9893 39.9405 52.6763 41.1375 52.6723 41.3895C52.8027 41.4144 52.9199 41.4849 53.0031 41.5884C53.0909 41.691 53.136 41.8235 53.1291 41.9585C53.0917 42.3286 52.8633 42.4861 52.5148 42.4999C52.4597 42.8562 52.4656 44.0493 52.5207 44.2835C52.8908 44.3229 53.0857 44.4843 53.1172 44.7659C53.1606 45.0691 53.0149 45.2659 52.6605 45.4037C52.7668 45.9884 52.9184 46.5633 53.1172 47.1264C53.256 47.0844 53.4048 47.0893 53.5405 47.1401C53.6724 47.1972 53.7768 47.2957 53.8319 47.4315C53.8811 47.5378 53.8909 47.6481 53.8654 47.7642C53.847 47.8506 53.8088 47.9314 53.7538 48.0005C53.6988 48.0695 53.6285 48.1247 53.5484 48.1619C53.8122 48.7092 54.1036 49.225 54.4481 49.7093C54.7552 49.5577 55.023 49.5932 55.2041 49.8097C55.2838 49.8987 55.3292 50.0132 55.3321 50.1326C55.3382 50.2208 55.3227 50.3092 55.287 50.3902C55.2514 50.4711 55.1966 50.5422 55.1273 50.5972C55.521 51.0579 55.9404 51.4792 56.3971 51.867C56.655 51.6406 56.9228 51.6052 57.1531 51.7666C57.2575 51.8395 57.3303 51.9359 57.3638 52.0541C57.3878 52.1377 57.3928 52.2256 57.3785 52.3115C57.3642 52.3973 57.3309 52.4788 57.2811 52.5502C57.7792 52.8927 58.293 53.188 58.8305 53.444C59.0391 53.1506 59.2774 53.0522 59.5353 53.1506C59.6476 53.191 59.7451 53.2644 59.8148 53.3613C59.9133 53.5188 59.927 53.692 59.8699 53.8771C60.4369 54.0779 61.0079 54.2315 61.5985 54.3358C61.7146 54.0031 61.9154 53.8476 62.1832 53.8672C62.3072 53.8771 62.4194 53.9145 62.5179 53.9992C62.6557 54.1252 62.7206 54.2846 62.7088 54.4815C63.3152 54.5248 63.9078 54.5287 64.4964 54.4815C64.5397 54.1015 64.6913 53.9106 64.9965 53.8672C65.1124 53.8512 65.2303 53.8748 65.3312 53.9342C65.4049 53.9759 65.4683 54.0336 65.5167 54.1032C65.5651 54.1727 65.5972 54.2522 65.6107 54.3358C66.2053 54.2256 66.7821 54.074 67.3393 53.8751C67.29 53.503 67.3806 53.2806 67.6306 53.1644C67.7218 53.1253 67.8213 53.1097 67.92 53.1191C68.0224 53.127 68.1149 53.1585 68.1897 53.2254C68.2626 53.2865 68.3236 53.3613 68.3945 53.4381C68.9311 53.1848 69.446 52.8878 69.934 52.5502C69.7332 52.2352 69.8513 51.934 70.0147 51.8001C70.0717 51.7512 70.1379 51.7142 70.2093 51.6912C70.2807 51.6682 70.356 51.6597 70.4308 51.6661C70.5056 51.6725 70.5783 51.6937 70.6448 51.7286C70.7113 51.7634 70.7702 51.8112 70.818 51.869C71.2727 51.4792 71.7 51.0559 72.0819 50.6011C71.8594 50.3472 71.8161 50.0794 71.9795 49.8491C72.0456 49.7459 72.1471 49.6703 72.265 49.6365C72.3489 49.6098 72.4379 49.6029 72.525 49.6162C72.612 49.6295 72.6949 49.6627 72.767 49.7133C73.1115 49.2171 73.4108 48.7033 73.6667 48.1639C73.3793 47.9709 73.2749 47.7445 73.3616 47.4866C73.393 47.3719 73.4624 47.2713 73.5584 47.2012C73.6349 47.1478 73.7227 47.1129 73.8149 47.0993C73.9072 47.0856 74.0013 47.0935 74.09 47.1224C74.2179 46.8448 74.5369 45.6754 74.5546 45.3919C74.4184 45.3672 74.2955 45.2945 74.2081 45.1872C74.1622 45.134 74.1279 45.0719 74.1072 45.0049C74.0865 44.9378 74.08 44.8671 74.088 44.7974C74.0955 44.6727 74.1471 44.5547 74.2337 44.4647C74.2929 44.4022 74.3654 44.3539 74.4459 44.3232C74.5263 44.2926 74.6125 44.2803 74.6983 44.2875C74.7475 43.692 74.7475 43.0934 74.6983 42.4979C74.3223 42.4605 74.1431 42.3148 74.0939 42.0175C74.0718 41.9051 74.0884 41.7885 74.1412 41.6868C74.1817 41.6081 74.24 41.54 74.3114 41.4877C74.3828 41.4354 74.4654 41.4005 74.5526 41.3856C74.4492 40.7974 74.2958 40.2191 74.0939 39.657C73.7297 39.7181 73.5053 39.6196 73.3852 39.3676C73.354 39.3003 73.3366 39.2274 73.3339 39.1532C73.3312 39.079 73.3433 39.005 73.3695 38.9356C73.3957 38.8661 73.4355 38.8026 73.4865 38.7486C73.5376 38.6947 73.5988 38.6515 73.6667 38.6215C73.4116 38.0803 73.1106 37.5619 72.767 37.0721C72.45 37.2237 72.1921 37.1883 72.011 36.9717C71.9306 36.8802 71.8858 36.7628 71.885 36.641C71.8813 36.5545 71.8979 36.4683 71.9335 36.3893C71.969 36.3103 72.0225 36.2408 72.0898 36.1862C71.701 35.7311 71.2778 35.3066 70.8239 34.9164C70.5522 35.1487 70.2884 35.1782 70.064 35.0168C69.9621 34.9488 69.8875 34.847 69.8533 34.7294C69.8288 34.6467 69.8235 34.5596 69.8378 34.4747C69.8522 34.3897 69.8857 34.3091 69.936 34.2391C69.4452 33.897 68.927 33.5961 68.3866 33.3394C68.1838 33.6308 67.9555 33.7273 67.6976 33.6407C67.5833 33.6041 67.4834 33.5325 67.4121 33.4359C67.3601 33.3591 67.327 33.2711 67.3154 33.1791C67.3038 33.0871 67.314 32.9937 67.3452 32.9063C66.7835 32.7032 66.2051 32.5497 65.6166 32.4476C65.5044 32.7665 65.3016 32.9319 65.0398 32.9162C64.9174 32.9122 64.7997 32.8679 64.7051 32.7902C64.6349 32.731 64.5801 32.6556 64.5455 32.5706C64.5109 32.4855 64.4974 32.3933 64.5063 32.3019C63.9114 32.2514 63.3134 32.252 62.7187 32.3039C62.6773 32.6583 62.5238 32.861 62.2619 32.9044C62.1442 32.9295 62.0215 32.9142 61.9135 32.861C61.8329 32.8212 61.7631 32.7627 61.7097 32.6905C61.6562 32.6183 61.6208 32.5343 61.6064 32.4456C61.0179 32.5527 60.4392 32.7074 59.8759 32.9083C59.9388 33.2568 59.8404 33.4851 59.6002 33.6092C59.4959 33.6623 59.3856 33.684 59.2636 33.6623C59.1718 33.6498 59.085 33.6136 59.0114 33.5574C58.9379 33.5011 58.8803 33.4267 58.8442 33.3414C58.5076 33.4674 57.4366 34.0875 57.2949 34.2431C57.4405 34.5344 57.4071 34.7924 57.2063 34.9774C57.1495 35.0275 57.0833 35.0657 57.0115 35.0898C56.9397 35.1138 56.8638 35.1231 56.7884 35.1172C56.7129 35.1114 56.6394 35.0904 56.5722 35.0555C56.5049 35.0207 56.4454 34.9727 56.3971 34.9144C55.9428 35.3028 55.5196 35.726 55.1312 36.1803" fill="#010088"/>
<path fill-rule="evenodd" clip-rule="evenodd" d="M69.0626 52.8143C69.039 52.7887 69.0154 52.7709 68.9977 52.7434C67.8531 50.9937 66.7053 49.2461 65.5544 47.5007C65.5288 47.4515 65.4993 47.4022 65.4756 47.3471C65.2079 46.723 64.946 46.099 64.6724 45.4768C64.6632 45.4448 64.6507 45.4138 64.635 45.3843C64.5247 45.4257 64.4243 45.4729 64.3062 45.5182L64.3456 45.6186C64.5917 46.223 64.8279 46.8294 65.078 47.4338C65.1449 47.5952 65.1725 47.7645 65.2079 47.9338C65.4008 48.8374 65.5819 49.745 65.7768 50.6506L66.4423 53.8852C66.4456 53.8929 66.4467 53.9014 66.4457 53.9097C66.4447 53.918 66.4414 53.9258 66.4364 53.9325L66.4088 53.8636C65.8694 52.2118 65.3162 50.562 64.7748 48.9103C64.6665 48.5874 64.57 48.2685 64.4519 47.9456C64.3968 47.7842 64.3791 47.6188 64.3535 47.4515C64.2846 46.9829 64.2255 46.5104 64.1487 46.0419C64.1389 45.9297 64.1212 45.8194 64.1054 45.7111C64.1006 45.6661 64.0934 45.6215 64.0838 45.5773C63.9656 45.5891 63.8574 45.6048 63.7392 45.6186C63.7392 45.6658 63.7432 45.7151 63.7471 45.7643C63.816 46.3411 63.8751 46.9199 63.9578 47.4948C64.0011 47.8098 63.9794 48.1189 63.9617 48.4339C63.9499 48.6996 63.9322 48.9654 63.9203 49.2332C63.8849 49.7726 63.8574 50.31 63.8199 50.8475L63.7609 51.9579C63.7274 52.5878 63.688 53.2159 63.6546 53.8419C63.6388 54.0191 63.6349 54.2002 63.6172 54.3735L63.5699 53.777L63.5089 52.4855L63.438 51.3338C63.4183 50.94 63.3927 50.5483 63.3711 50.1545C63.3534 49.8966 63.3435 49.6387 63.3278 49.3847C63.3061 48.9772 63.2805 48.5697 63.2608 48.1661C63.2415 47.951 63.2467 47.7343 63.2766 47.5204C63.3179 47.229 63.3494 46.9317 63.3849 46.6364C63.4242 46.345 63.4577 46.0517 63.4931 45.7643C63.4971 45.719 63.4971 45.6717 63.503 45.6186L63.1585 45.5733C63.1486 45.6521 63.1309 45.7288 63.1171 45.8076C63.0353 46.409 62.9513 47.0101 62.8651 47.6109C62.8415 47.8452 62.749 48.0618 62.6702 48.2803C62.0639 50.1269 61.4555 51.9756 60.8413 53.8203C60.8275 53.8537 60.8216 53.8852 60.796 53.9167C60.796 53.8931 60.796 53.8754 60.8058 53.8537C61.0598 52.6095 61.3157 51.3633 61.5795 50.1191C61.7489 49.2922 61.9241 48.4673 62.0914 47.6424L62.1387 47.5066C62.3926 46.8825 62.6367 46.2525 62.8966 45.6284C62.9057 45.5916 62.9189 45.556 62.936 45.5221C62.8276 45.4757 62.7186 45.4304 62.6092 45.3863C62.5954 45.4217 62.5737 45.4512 62.5619 45.4867C62.2903 46.1127 62.0245 46.7408 61.7528 47.3668C61.7358 47.4139 61.7147 47.4593 61.6898 47.5027C60.5281 49.2624 59.3699 51.0244 58.215 52.7887C58.1991 52.8152 58.1784 52.8386 58.154 52.8576C58.1638 52.8261 58.1815 52.8005 58.1934 52.7729L61.0401 47.1286C61.0646 47.0773 61.095 47.0291 61.1307 46.9849L62.3473 45.3528C62.3729 45.3253 62.3887 45.2997 62.4123 45.2701C62.3119 45.1973 62.2312 45.1304 62.1308 45.0536C62.1091 45.0792 62.0894 45.1008 62.0717 45.1264C61.6465 45.6599 61.2271 46.1974 60.8117 46.7289C60.7645 46.7782 60.7212 46.8294 60.668 46.8746C59.1167 48.2626 57.5653 49.6427 56.0081 51.0326C55.9766 51.0582 55.9451 51.0857 55.9057 51.1034C55.9234 51.0857 55.9333 51.0641 55.9451 51.0503C57.2228 49.623 58.4906 48.1976 59.7624 46.7703C59.8353 46.6915 59.9081 46.6128 59.977 46.5281C60.1227 46.3588 60.2861 46.2092 60.4633 46.0753L61.8768 44.963C61.9083 44.9394 61.9319 44.9138 61.9674 44.8902C61.8975 44.7958 61.8253 44.7033 61.7508 44.6126C61.7193 44.6323 61.6937 44.652 61.6642 44.6736C61.1228 45.0792 60.5794 45.4808 60.038 45.8883C59.9774 45.934 59.9129 45.9742 59.8451 46.0084C57.9965 46.9416 56.138 47.8747 54.2854 48.8079C54.25 48.8237 54.2165 48.8434 54.1752 48.8434L54.25 48.7902L57.7071 46.5262C58.3095 46.1305 58.9139 45.7347 59.5124 45.3371C59.5636 45.3075 59.6167 45.2819 59.662 45.2583C60.29 44.9925 60.9161 44.7248 61.5382 44.4571C61.5677 44.4452 61.5973 44.4334 61.6327 44.4157L61.5008 44.0909C61.4634 44.1007 61.4398 44.1106 61.4102 44.1204C60.7724 44.3744 60.1404 44.6323 59.4986 44.8843C59.3667 44.9335 59.223 44.9571 59.0832 44.9866L54.7816 45.8804C54.2402 45.9966 53.6889 46.1108 53.1456 46.223C53.1237 46.2282 53.1006 46.2254 53.0806 46.2151C53.2302 46.1679 53.3798 46.1147 53.5275 46.0655C55.386 45.4532 57.2425 44.8429 59.095 44.2267C59.2407 44.1775 59.3962 44.1637 59.5439 44.1401C60.1424 44.0574 60.7389 43.9708 61.3315 43.8861C61.3679 43.8797 61.404 43.8718 61.4398 43.8625C61.428 43.7483 61.4102 43.6341 61.4004 43.516L61.113 43.5475L59.9239 43.6912C59.7014 43.7208 59.4809 43.7444 59.2624 43.7719C59.2092 43.7778 59.158 43.7798 59.1068 43.7778L57.8547 43.705L57.1145 43.6637L55.8388 43.5888L53.9783 43.4865C53.5295 43.4628 53.0924 43.4333 52.6455 43.4018C52.7164 43.3959 52.7951 43.3841 52.8719 43.3841L54.3977 43.2975L56.4136 43.1833L58.0831 43.0888L59.1305 43.0258C59.1718 43.0238 59.221 43.0297 59.2624 43.0337L60.4633 43.1774L61.3138 43.2798H61.4004C61.4102 43.1675 61.428 43.0612 61.4398 42.9392C61.3669 42.9234 61.2842 42.9116 61.2114 42.8978C60.6857 42.825 60.164 42.7482 59.6384 42.6714C59.5292 42.6589 59.4203 42.6445 59.3116 42.6281C59.2513 42.62 59.192 42.6061 59.1344 42.5868C57.5693 42.0729 56.014 41.5552 54.4508 41.0413C54.0158 40.8987 53.5814 40.7544 53.1475 40.6082C53.11 40.5983 53.0747 40.5816 53.0432 40.559L53.3168 40.6141L56.6578 41.3091C57.5516 41.4961 58.4591 41.6812 59.3529 41.8702C59.4067 41.882 59.4594 41.8985 59.5104 41.9194C60.1404 42.1674 60.7645 42.4234 61.4004 42.6754L61.4949 42.7128C61.5382 42.6045 61.5855 42.5001 61.6327 42.3879C61.6006 42.3688 61.5671 42.3523 61.5323 42.3387C60.9062 42.0749 60.2822 41.8052 59.6581 41.5355C59.6091 41.5147 59.5617 41.4904 59.5163 41.4626C57.7504 40.307 55.9923 39.1455 54.2244 37.9878C54.2011 37.9749 54.1825 37.9549 54.1713 37.9308L54.2421 37.9701C56.0022 38.8561 57.7642 39.742 59.5281 40.6259C59.8195 40.7716 60.103 40.9468 60.3629 41.1457C60.7921 41.4784 61.2291 41.7973 61.6662 42.1241C61.6957 42.1458 61.7213 42.1655 61.7528 42.1851L61.9694 41.9115L61.8926 41.8446L60.292 40.5866C60.2369 40.5432 60.1936 40.498 60.1463 40.4507C58.7525 38.8895 57.3566 37.3264 55.9667 35.7652C55.9466 35.7491 55.931 35.728 55.9215 35.7041C55.9628 35.7081 55.9785 35.7356 55.9963 35.7534C56.8408 36.5015 57.6775 37.2496 58.5162 37.9977L60.6858 39.931C60.7251 39.9664 60.7625 40.0097 60.798 40.0491L62.0402 41.628C62.0717 41.6634 62.0954 41.7008 62.1308 41.7481L62.4163 41.5296C62.3985 41.502 62.3749 41.4803 62.3611 41.4548C61.9556 40.9134 61.552 40.37 61.1425 39.8306C61.1003 39.767 61.0615 39.7013 61.0263 39.6337C60.0814 37.7733 59.1442 35.9049 58.2052 34.0425C58.1874 34.0071 58.1697 33.9795 58.1658 33.9421C58.1835 33.9618 58.2012 33.9795 58.213 33.9973L60.2251 37.0724L61.6484 39.238C61.6977 39.3207 61.7528 39.4073 61.7843 39.4979C62.0501 40.1042 62.306 40.7126 62.5639 41.3189C62.5816 41.3465 62.5934 41.376 62.6112 41.4114L62.938 41.2756L62.9025 41.1929C62.6564 40.5787 62.4163 39.9644 62.1662 39.3541C62.0973 39.1986 62.0717 39.0372 62.0383 38.8757C61.8237 37.85 61.617 36.8224 61.4024 35.7947C61.1917 34.8064 60.9909 33.826 60.7842 32.8337C60.7802 32.8278 60.7842 32.82 60.7921 32.8003L60.9653 33.3259C61.5835 35.1824 62.1958 37.0429 62.8021 38.9033C62.8533 39.049 62.871 39.2085 62.8927 39.36C62.9655 39.8758 63.0384 40.3956 63.1211 40.9153C63.1348 41.0138 63.1407 41.1122 63.1604 41.2205L63.503 41.1772V41.0472C63.4538 40.6358 63.4006 40.2223 63.3534 39.8128C63.3238 39.5727 63.3022 39.3384 63.2687 39.1041C63.249 38.9466 63.249 38.7872 63.2687 38.6296C63.2825 38.3619 63.3022 38.0961 63.314 37.8303L63.4105 36.2258C63.4282 35.9384 63.4341 35.647 63.4518 35.3596C63.4774 34.9856 63.4971 34.6056 63.5187 34.2296C63.5365 33.9539 63.5502 33.6764 63.562 33.4027C63.5778 33.0779 63.6034 32.755 63.6309 32.4321C63.6388 32.5207 63.6428 32.6113 63.6467 32.7058C63.6743 33.1015 63.694 33.4972 63.7176 33.8949L63.8199 35.6982L63.881 36.7101C63.9125 37.2949 63.94 37.8815 63.9735 38.4662C63.9833 38.5548 63.9873 38.6375 63.9932 38.7241C64.0188 38.9525 63.9735 39.1789 63.9538 39.4053L63.8278 40.4369C63.8081 40.6318 63.7786 40.8267 63.755 41.0236C63.751 41.0709 63.751 41.122 63.7373 41.1791C63.8593 41.1969 63.9696 41.2087 64.0916 41.2244C64.1093 41.1398 64.1172 41.061 64.131 40.9783C64.2255 40.3385 64.3161 39.6987 64.4066 39.0549C64.4145 39.0076 64.4342 38.9584 64.446 38.9092C65.0878 36.9838 65.7178 35.0564 66.3557 33.1271C66.3872 33.0385 66.4108 32.9538 66.46 32.8692C66.4547 32.9141 66.4475 32.9588 66.4383 33.0031C66.1509 34.3969 65.8517 35.7868 65.5662 37.1767C65.4382 37.8284 65.3024 38.482 65.1666 39.1336C65.157 39.1877 65.1397 39.24 65.1154 39.2892L64.3554 41.189C64.3417 41.2165 64.3318 41.2461 64.318 41.2815C64.4362 41.3268 64.5326 41.3721 64.6468 41.4174L64.6921 41.3229L65.4855 39.4585C65.517 39.3955 65.5406 39.3344 65.5819 39.2833L69.0174 34.0425C69.039 34.015 69.0567 33.9874 69.0902 33.9677C69.0764 33.9953 69.0666 34.0228 69.0489 34.0504L66.2238 39.6613C66.1942 39.7144 66.1647 39.7676 66.1293 39.8148C65.7198 40.3602 65.3083 40.9055 64.9047 41.4469C64.8852 41.4779 64.8635 41.5075 64.8397 41.5355L65.1193 41.754C65.1414 41.7305 65.1618 41.7055 65.1803 41.6792C65.5977 41.1476 66.0131 40.6141 66.4364 40.0826C66.483 40.0228 66.5351 39.9674 66.5919 39.9172C68.1472 38.5273 69.7044 37.1393 71.2617 35.7534C71.2873 35.7317 71.305 35.71 71.3464 35.6982L71.2952 35.7612C70.6593 36.4798 70.0234 37.1945 69.3776 37.9091C68.6098 38.7655 67.8519 39.6199 67.09 40.4763C67.0506 40.5196 67.0034 40.557 66.962 40.5925L65.3615 41.8505L65.2827 41.9135C65.3575 42.008 65.4244 42.0985 65.5032 42.193L65.5879 42.13L67.2278 40.9015C67.2696 40.8717 67.313 40.8441 67.3577 40.8189C69.2477 39.8699 71.1259 38.925 73.004 37.976C73.0355 37.9623 73.0611 37.9504 73.0946 37.9504C73.0079 38.0075 72.9272 38.0627 72.8406 38.1158C71.1416 39.2321 69.4426 40.3483 67.7377 41.4646C67.6904 41.4922 67.6471 41.5197 67.5959 41.5414C66.9679 41.8131 66.334 42.0808 65.7119 42.3505L65.6115 42.3899C65.6646 42.5001 65.702 42.6045 65.7493 42.7147L65.8399 42.6852C66.4718 42.4352 67.0998 42.1733 67.7377 41.9312C67.8952 41.8682 68.0684 41.8406 68.2397 41.8052L71.1396 41.2028C72.0413 41.0177 72.9351 40.8287 73.8387 40.6417C73.9214 40.624 73.9982 40.6062 74.0848 40.5905C74.1065 40.5905 74.1262 40.5866 74.1577 40.5984L73.8821 40.6889C71.9586 41.3248 70.0411 41.9587 68.1177 42.5868C67.972 42.638 67.8105 42.6517 67.6589 42.6754C67.2278 42.7403 66.8026 42.7974 66.3832 42.8585C66.2297 42.8801 66.0781 42.9037 65.9245 42.9234L65.8123 42.9431C65.8241 43.0593 65.8418 43.1675 65.8497 43.2935L66.147 43.262L67.2101 43.136C67.4759 43.1026 67.7534 43.0652 68.031 43.0396C68.1551 43.0297 68.2811 43.0415 68.409 43.0474C68.6787 43.0593 68.9485 43.0829 69.23 43.0947L70.8207 43.1892C71.0569 43.203 71.2932 43.2128 71.5373 43.2286L73.1595 43.3211C73.5434 43.3447 73.9391 43.3624 74.3211 43.3861C74.4158 43.3915 74.5104 43.4 74.6046 43.4117L74.3171 43.4353L73.1261 43.5003L71.6515 43.5869L70.5392 43.6459C70.0273 43.6774 69.5056 43.707 68.9898 43.7404C68.7063 43.7522 68.4149 43.7798 68.1295 43.7818C67.9661 43.7857 67.7948 43.7542 67.6353 43.7365C67.2854 43.6955 66.9356 43.6535 66.586 43.6105L65.9147 43.5298H65.8497C65.8418 43.644 65.8241 43.7562 65.8123 43.8763C66.5063 43.979 67.2006 44.0794 67.8952 44.1775C68.0999 44.2031 68.2791 44.2838 68.472 44.3448L74.0711 46.1935C74.1074 46.2011 74.1417 46.2165 74.1715 46.2387C74.1242 46.2309 74.0789 46.223 74.0317 46.2191L69.1689 45.2052L67.8853 44.9374C67.844 44.9256 67.7889 44.9099 67.7436 44.8882C67.1116 44.6382 66.4777 44.3822 65.8418 44.1283L65.7572 44.0987C65.7112 44.2066 65.6632 44.3135 65.6134 44.4196L65.7178 44.4689C66.3458 44.7366 66.9699 45.0024 67.594 45.2721C67.6432 45.2938 67.6924 45.3193 67.7436 45.3548L72.9843 48.7882C73.0099 48.8079 73.0434 48.8315 73.065 48.8689C73.0394 48.8532 73.0099 48.8433 72.9883 48.8276L70.2577 47.4574C69.3048 46.9731 68.3441 46.4927 67.3814 46.0084C67.32 45.978 67.2625 45.9403 67.2101 45.8962C66.6687 45.4926 66.1214 45.087 65.58 44.6795C65.5559 44.6591 65.5302 44.6407 65.5032 44.6244C65.4284 44.715 65.3615 44.8035 65.2827 44.898L65.3575 44.9571C65.8851 45.3784 66.4226 45.7997 66.9522 46.2191C67.0124 46.2622 67.0673 46.3124 67.1156 46.3687L71.2873 51.0365C71.3043 51.0599 71.3176 51.0858 71.3267 51.1133C71.305 51.0897 71.2755 51.0739 71.2538 51.0562C69.6887 49.6564 68.1216 48.2645 66.5525 46.8668C66.5169 46.8352 66.4852 46.7995 66.458 46.7604L65.1823 45.1343C65.1646 45.1087 65.1429 45.0851 65.1213 45.0595C65.0307 45.1343 64.9421 45.2012 64.8516 45.28C64.8594 45.3036 64.8772 45.3292 64.8929 45.3528L66.1312 47.0026C66.1666 47.0506 66.1982 47.1013 66.2257 47.1542C67.1648 49.0166 68.1019 50.8829 69.039 52.7473C69.0543 52.7726 69.0643 52.8007 69.0685 52.83H69.0626V52.8143Z" fill="#010088"/>
<path fill-rule="evenodd" clip-rule="evenodd" d="M69.0439 52.8152C69.0642 52.8355 69.0764 52.8578 69.0926 52.876C69.0825 52.8801 69.0825 52.8862 69.0703 52.8882C69.0663 52.8598 69.0521 52.8416 69.048 52.8152H69.0439" fill="#010088"/>
</svg>
