<svg width="20" height="20" viewBox="0 0 20 20" fill="none" xmlns="http://www.w3.org/2000/svg">
<path d="M18.9471 6.30496C18.937 5.54758 18.7952 4.79773 18.5281 4.08896C18.2964 3.49111 17.9426 2.94816 17.4892 2.49479C17.0359 2.04142 16.4929 1.68761 15.8951 1.45596C15.1954 1.19331 14.4562 1.0513 13.7091 1.03596C12.7471 0.992957 12.4421 0.980957 10.0001 0.980957C7.55807 0.980957 7.24507 0.980957 6.29007 1.03596C5.54323 1.05141 4.80442 1.19343 4.10507 1.45596C3.50713 1.68745 2.96409 2.0412 2.5107 2.49459C2.05732 2.94798 1.70356 3.49102 1.47207 4.08896C1.2089 4.78809 1.06719 5.52707 1.05307 6.27396C1.01007 7.23696 0.99707 7.54196 0.99707 9.98396C0.99707 12.426 0.99707 12.738 1.05307 13.694C1.06807 14.442 1.20907 15.18 1.47207 15.881C1.70395 16.4787 2.05797 17.0215 2.51151 17.4747C2.96505 17.9279 3.50813 18.2815 4.10607 18.513C4.8035 18.7862 5.54244 18.9383 6.29107 18.963C7.25407 19.006 7.55907 19.019 10.0011 19.019C12.4431 19.019 12.7561 19.019 13.7111 18.963C14.4582 18.9482 15.1974 18.8066 15.8971 18.544C16.4948 18.312 17.0376 17.9581 17.4909 17.5048C17.9442 17.0515 18.2982 16.5086 18.5301 15.911C18.7931 15.211 18.9341 14.473 18.9491 13.724C18.9921 12.762 19.0051 12.457 19.0051 10.014C19.0031 7.57196 19.0031 7.26196 18.9471 6.30496V6.30496ZM9.99407 14.602C7.44007 14.602 5.37107 12.533 5.37107 9.97896C5.37107 7.42496 7.44007 5.35596 9.99407 5.35596C11.2202 5.35596 12.396 5.84302 13.263 6.71C14.13 7.57698 14.6171 8.75286 14.6171 9.97896C14.6171 11.2051 14.13 12.3809 13.263 13.2479C12.396 14.1149 11.2202 14.602 9.99407 14.602V14.602ZM14.8011 6.26296C14.2041 6.26296 13.7231 5.78096 13.7231 5.18496C13.7231 5.04346 13.7509 4.90334 13.8051 4.77262C13.8592 4.64189 13.9386 4.5231 14.0387 4.42305C14.1387 4.32299 14.2575 4.24363 14.3882 4.18948C14.519 4.13533 14.6591 4.10746 14.8006 4.10746C14.9421 4.10746 15.0822 4.13533 15.2129 4.18948C15.3436 4.24363 15.4624 4.32299 15.5625 4.42305C15.6625 4.5231 15.7419 4.64189 15.7961 4.77262C15.8502 4.90334 15.8781 5.04346 15.8781 5.18496C15.8781 5.78096 15.3961 6.26296 14.8011 6.26296Z" fill="#8D8D8D"/>
</svg>
