<svg width="14" height="18" viewBox="0 0 14 18" fill="none" xmlns="http://www.w3.org/2000/svg">
<path d="M12.9786 7.54545C12.9786 12.6364 6.98931 17 6.98931 17C6.98931 17 1 12.6364 1 7.54545C1 5.80949 1.63101 4.14463 2.75423 2.91712C3.87744 1.68961 5.40084 1 6.98931 1C8.57777 1 10.1012 1.68961 11.2244 2.91712C12.3476 4.14463 12.9786 5.80949 12.9786 7.54545Z" stroke="#949494" stroke-width="1.5" stroke-linecap="round" stroke-linejoin="round"/>
<path d="M6.98911 9.72716C8.09171 9.72716 8.98555 8.75033 8.98555 7.54534C8.98555 6.34036 8.09171 5.36353 6.98911 5.36353C5.88651 5.36353 4.99268 6.34036 4.99268 7.54534C4.99268 8.75033 5.88651 9.72716 6.98911 9.72716Z" stroke="#949494" stroke-width="1.5" stroke-linecap="round" stroke-linejoin="round"/>
</svg>
