<svg width="21" height="21" viewBox="0 0 21 21" fill="none" xmlns="http://www.w3.org/2000/svg">
<g clip-path="url(#clip0)">
<path d="M16.6328 0H4.32812C1.95344 0 0.0214844 1.95033 0.0214844 4.34765V14.1914C0.0214844 16.3572 1.6286 18.1547 3.71288 18.4542V20.3894C3.71292 20.3897 3.71292 20.3899 3.71292 20.3902V20.3925C3.6966 20.3533 3.71604 20.9301 4.25343 20.9955C4.43644 21.0178 4.62724 20.9576 4.76604 20.8169C4.76629 20.8166 7.04687 18.498 7.04687 18.498H16.6328C19.0301 18.498 20.9804 16.5661 20.9804 14.1914V4.34765C20.9804 1.96239 19.0089 0 16.6328 0V0Z" fill="url(#paint0_linear)"/>
<path d="M6.69586 12.7495L5.80299 12.6197L5.40374 11.8107C5.30014 11.6007 5.08624 11.4677 4.85204 11.4677C4.61789 11.4677 4.40399 11.6007 4.30034 11.8107L3.90106 12.6197L3.00819 12.7495C2.77645 12.7831 2.58392 12.9455 2.51157 13.1682C2.43922 13.3909 2.49955 13.6354 2.66722 13.7988L3.3133 14.4286L3.16081 15.3179C3.12123 15.5487 3.21614 15.782 3.40559 15.9196C3.59504 16.0572 3.84614 16.0754 4.05351 15.9664L4.85209 15.5466L5.65066 15.9664C5.8591 16.076 6.11016 16.0565 6.29858 15.9196C6.48803 15.782 6.58294 15.5487 6.54336 15.3179L6.39083 14.4286L7.03691 13.7989C7.20458 13.6354 7.26495 13.3909 7.19256 13.1682C7.12017 12.9455 6.92764 12.7832 6.69586 12.7495ZM12.3233 12.7495L11.4305 12.6197L11.0312 11.8107C10.9275 11.6007 10.7136 11.4677 10.4795 11.4677C10.2453 11.4677 10.0314 11.6007 9.92777 11.8107L9.52852 12.6197L8.63561 12.7495C8.40387 12.7831 8.21131 12.9455 8.13899 13.1682C8.0666 13.3909 8.12698 13.6354 8.29469 13.7989L8.94077 14.4286L8.78823 15.3179C8.74865 15.5487 8.84356 15.782 9.03301 15.9196C9.22242 16.0572 9.4736 16.0755 9.68094 15.9664L10.4795 15.5466L11.2781 15.9664C11.4865 16.076 11.7376 16.0565 11.926 15.9196C12.1155 15.782 12.2104 15.5487 12.1708 15.3179L12.0183 14.4286L12.6643 13.7989C12.832 13.6354 12.8924 13.3909 12.82 13.1682C12.7476 12.9455 12.5551 12.7832 12.3233 12.7495ZM18.4474 13.1682C18.375 12.9455 18.1825 12.7831 17.9508 12.7495L17.0579 12.6197L16.6586 11.8107C16.555 11.6007 16.3411 11.4677 16.1069 11.4677C15.8727 11.4677 15.6588 11.6007 15.5552 11.8107L15.156 12.6197L14.2631 12.7495C14.0314 12.7831 13.8389 12.9455 13.7665 13.1682C13.6942 13.3909 13.7545 13.6354 13.9222 13.7988L14.5682 14.4286L14.4157 15.3178C14.3761 15.5487 14.471 15.7819 14.6605 15.9196C14.8495 16.0569 15.1007 16.0756 15.3084 15.9664L16.107 15.5466L16.9056 15.9664C17.113 16.0754 17.3641 16.0572 17.5536 15.9196C17.743 15.7819 17.8379 15.5486 17.7983 15.3178L17.6458 14.4286L18.2918 13.7988C18.4594 13.6354 18.5198 13.3909 18.4474 13.1682ZM12.3252 4.34766C12.3252 3.32994 11.4972 2.50195 10.4795 2.50195C9.46175 2.50195 8.63377 3.32994 8.63377 4.34766C8.63377 5.36538 9.46175 6.19336 10.4795 6.19336C11.4972 6.19336 12.3252 5.36538 12.3252 4.34766ZM10.4795 6.19336C8.78327 6.19336 7.4033 7.57333 7.4033 9.26953C7.4033 9.6093 7.67876 9.88477 8.01853 9.88477H12.9404C13.2802 9.88477 13.5556 9.6093 13.5556 9.26953C13.5556 7.57333 12.1757 6.19336 10.4795 6.19336Z" fill="url(#paint1_linear)"/>
</g>
<defs>
<linearGradient id="paint0_linear" x1="10.501" y1="21" x2="10.501" y2="0" gradientUnits="userSpaceOnUse">
<stop stop-color="#FD5900"/>
<stop offset="1" stop-color="#FFDE00"/>
</linearGradient>
<linearGradient id="paint1_linear" x1="10.4795" y1="16.0371" x2="10.4795" y2="2.50195" gradientUnits="userSpaceOnUse">
<stop stop-color="#FFE59A"/>
<stop offset="1" stop-color="#FFFFD5"/>
</linearGradient>
<clipPath id="clip0">
<rect width="21" height="21" fill="white"/>
</clipPath>
</defs>
</svg>
