<svg width="17" height="18" viewBox="0 0 17 18" fill="none" xmlns="http://www.w3.org/2000/svg">
<path d="M12.75 6C13.9236 6 14.875 4.99264 14.875 3.75C14.875 2.50736 13.9236 1.5 12.75 1.5C11.5764 1.5 10.625 2.50736 10.625 3.75C10.625 4.99264 11.5764 6 12.75 6Z" stroke="black" stroke-width="1.5" stroke-linecap="round" stroke-linejoin="round"/>
<path d="M4.25 11.25C5.4236 11.25 6.375 10.2426 6.375 9C6.375 7.75736 5.4236 6.75 4.25 6.75C3.07639 6.75 2.125 7.75736 2.125 9C2.125 10.2426 3.07639 11.25 4.25 11.25Z" stroke="black" stroke-width="1.5" stroke-linecap="round" stroke-linejoin="round"/>
<path d="M12.75 16.5C13.9236 16.5 14.875 15.4926 14.875 14.25C14.875 13.0074 13.9236 12 12.75 12C11.5764 12 10.625 13.0074 10.625 14.25C10.625 15.4926 11.5764 16.5 12.75 16.5Z" stroke="black" stroke-width="1.5" stroke-linecap="round" stroke-linejoin="round"/>
<path d="M6.08447 10.1326L10.9224 13.1176" stroke="black" stroke-width="1.5" stroke-linecap="round" stroke-linejoin="round"/>
<path d="M10.9153 4.88257L6.08447 7.86757" stroke="black" stroke-width="1.5" stroke-linecap="round" stroke-linejoin="round"/>
</svg>
