<svg width="24" height="24" viewBox="0 0 24 24" fill="none" xmlns="http://www.w3.org/2000/svg">
<path d="M18.4043 12.0002C18.4012 10.9917 18.2931 9.9863 18.0818 9.00019H20.7818C20.6428 8.58887 20.4749 8.18787 20.2793 7.80019H17.7668C17.2945 6.22224 16.5619 4.73426 15.5993 3.3977C14.9843 3.1391 14.3431 2.94798 13.6868 2.8277C15.0056 4.24462 16.001 5.93096 16.6043 7.77019H12.5618V2.7002H11.4368V7.77769H7.39434C7.99889 5.93513 8.99696 4.24609 10.3193 2.8277C9.66591 2.94597 9.0272 3.13457 8.41434 3.3902C7.44793 4.72116 6.7103 6.20401 6.23184 7.77769H3.70434C3.50526 8.17245 3.33482 8.581 3.19434 9.00019H5.91684C5.70555 9.9863 5.59747 10.9917 5.59434 12.0002C5.59641 13.1033 5.72219 14.2026 5.96934 15.2777H3.31434C3.4695 15.6981 3.65498 16.1067 3.86934 16.5002H6.29184C6.75099 17.937 7.43169 19.2934 8.30934 20.5202C8.93782 20.7898 9.59436 20.9885 10.2668 21.1127C9.04278 19.7775 8.1014 18.2086 7.49934 16.5002H11.4443V21.2552H12.5693V16.5002H16.4993C15.8952 18.2093 14.9512 19.7783 13.7243 21.1127C14.4 20.9842 15.0591 20.7804 15.6893 20.5052C16.5656 19.283 17.2462 17.9318 17.7068 16.5002H20.1068C20.3202 16.1139 20.5057 15.7129 20.6618 15.3002H17.9993C18.2583 14.219 18.3941 13.1119 18.4043 12.0002ZM11.4368 15.2777H7.13184C6.60381 13.2136 6.58066 11.0527 7.06434 8.97769H11.4368V15.2777ZM16.8668 15.2777H12.5618V9.00019H16.9343C17.1498 9.98549 17.2554 10.9916 17.2493 12.0002C17.2554 13.1042 17.127 14.2048 16.8668 15.2777Z" fill="black"/>
<path d="M12 0C9.62663 0 7.30655 0.703787 5.33316 2.02236C3.35977 3.34094 1.8217 5.21508 0.913451 7.4078C0.00519937 9.60051 -0.232441 12.0133 0.230582 14.3411C0.693604 16.6689 1.83649 18.807 3.51472 20.4853C5.19295 22.1635 7.33115 23.3064 9.65892 23.7694C11.9867 24.2324 14.3995 23.9948 16.5922 23.0865C18.7849 22.1783 20.6591 20.6402 21.9776 18.6668C23.2962 16.6934 24 14.3734 24 12C24 8.8174 22.7357 5.76515 20.4853 3.51472C18.2348 1.26428 15.1826 0 12 0V0ZM12 22.5C9.9233 22.5 7.89323 21.8842 6.16652 20.7304C4.4398 19.5767 3.09399 17.9368 2.29927 16.0182C1.50455 14.0995 1.29661 11.9883 1.70176 9.95155C2.1069 7.91475 3.10693 6.04383 4.57538 4.57538C6.04383 3.10693 7.91476 2.1069 9.95156 1.70175C11.9884 1.29661 14.0996 1.50454 16.0182 2.29926C17.9368 3.09398 19.5767 4.4398 20.7304 6.16651C21.8842 7.89323 22.5 9.92329 22.5 12C22.5 14.7848 21.3938 17.4555 19.4246 19.4246C17.4555 21.3937 14.7848 22.5 12 22.5Z" fill="black"/>
</svg>
